<?xml version="1.0" standalone="no"?>
<!DOCTYPE svg PUBLIC "-//W3C//DTD SVG 20010904//EN"
 "http://www.w3.org/TR/2001/REC-SVG-20010904/DTD/svg10.dtd">
<svg version="1.0" xmlns="http://www.w3.org/2000/svg"
 width="400.000000pt" height="158.000000pt" viewBox="0 0 400.000000 158.000000"
 preserveAspectRatio="xMidYMid meet">

<g transform="translate(0.000000,158.000000) scale(0.100000,-0.100000)"
fill="#000000" stroke="none">
<path d="M136 1353 c-3 -16 -8 -46 -12 -68 -3 -22 -8 -48 -10 -57 -4 -15 14
-17 203 -20 l208 -3 55 -30 c86 -47 117 -121 90 -214 -35 -122 -171 -201 -347
-201 -71 0 -73 1 -68 23 12 56 55 302 55 319 0 17 -8 18 -107 16 l-108 -3 -17
-90 c-9 -49 -30 -165 -46 -257 l-29 -168 212 0 c178 0 224 3 289 20 311 79
484 377 343 587 -89 132 -218 173 -549 173 l-156 0 -6 -27z"/>
<path d="M1360 1374 c0 -4 -29 -172 -65 -374 -36 -202 -65 -375 -65 -384 0
-14 14 -16 108 -16 l108 0 28 168 c16 92 32 173 35 179 4 8 70 -56 174 -167
l168 -180 448 0 447 0 12 70 c7 39 12 77 12 85 0 13 -31 15 -211 15 l-211 0 7
53 c15 104 2 97 183 97 l159 0 14 83 15 82 -164 3 c-149 2 -163 4 -158 20 3 9
8 34 12 55 l6 37 209 0 c115 0 209 2 209 4 0 2 7 40 15 83 8 43 15 81 15 86 0
4 -201 7 -447 7 l-448 0 -225 -184 c-124 -101 -226 -182 -228 -181 -2 2 10 80
27 174 17 94 31 175 31 181 0 6 -43 10 -110 10 -60 0 -110 -3 -110 -6z m844
-151 c-12 -71 -39 -225 -60 -343 -20 -118 -40 -219 -44 -223 -4 -4 -80 69
-169 164 -89 95 -160 174 -158 175 16 16 443 353 448 354 3 0 -4 -57 -17 -127z"/>
<path d="M2966 1353 c-3 -16 -33 -181 -66 -368 -33 -187 -62 -350 -65 -363
l-6 -23 113 3 112 3 17 100 c10 55 26 142 35 194 l17 93 196 -196 196 -196 52
0 c46 0 53 3 58 22 2 13 32 178 65 368 33 190 63 355 65 368 5 22 4 22 -104
22 -96 0 -110 -2 -115 -17 -3 -10 -19 -99 -36 -198 -18 -99 -33 -182 -36 -184
-2 -2 -92 86 -200 197 l-196 202 -48 0 c-45 0 -49 -2 -54 -27z"/>
<path d="M3924 1370 c15 -5 36 -15 45 -22 9 -7 6 -3 -7 10 -13 12 -33 22 -45
21 -18 -1 -17 -2 7 -9z"/>
<path d="M1051 1356 c-12 -14 -45 -176 -38 -183 4 -4 237 186 237 193 0 2 -42
4 -94 4 -69 0 -97 -4 -105 -14z"/>
<path d="M3859 1353 c-13 -17 -13 -17 6 -3 11 8 22 16 24 17 2 2 0 3 -6 3 -6
0 -17 -8 -24 -17z"/>
<path d="M3869 1298 c5 -30 6 -31 9 -8 2 14 9 28 16 32 7 5 3 8 -10 8 -18 0
-20 -5 -15 -32z"/>
<path d="M3911 1288 c1 -31 1 -31 8 -8 l7 25 8 -24 8 -24 14 24 c7 13 13 29
13 34 0 6 -6 -1 -13 -14 l-14 -24 -6 21 c-11 33 -26 26 -25 -10z"/>
<path d="M3991 1297 c0 -15 -13 -39 -27 -53 -14 -15 -20 -24 -13 -22 24 8 51
55 46 79 -4 22 -4 22 -6 -4z"/>
<path d="M1159 1217 c-47 -40 -103 -85 -123 -102 l-37 -30 -39 -230 c-22 -126
-40 -236 -40 -242 0 -10 29 -13 110 -13 61 0 110 3 110 6 0 8 109 633 115 662
3 12 2 22 -2 21 -5 0 -47 -33 -94 -72z"/>
<path d="M3840 1274 c0 -6 7 -19 16 -30 14 -18 14 -18 3 6 -14 31 -19 36 -19
24z"/>
<path d="M3908 1213 c7 -3 16 -2 19 1 4 3 -2 6 -13 5 -11 0 -14 -3 -6 -6z"/>
</g>
</svg>
