<?xml version="1.0" encoding="utf-8"?>
<!-- Generator: Adobe Illustrator 28.0.0, SVG Export Plug-In . SVG Version: 6.00 Build 0)  -->
<svg version="1.1" id="Layer_1" xmlns="http://www.w3.org/2000/svg" xmlns:xlink="http://www.w3.org/1999/xlink" x="0px" y="0px"
	 fill="#ffffff" viewBox="0 0 524 57" style="enable-background:new 0 0 524 57;" xml:space="preserve">
<g fill="#ffffff">
	<rect x="0.21" y="-0.37" width="69" height="17"/>
	<rect x="24.21" y="38.63" width="21" height="8"/>
	<rect x="24.21" y="28.63" width="21" height="8"/>
	<rect x="24.21" y="18.63" width="21" height="8"/>
	<rect x="24.21" y="48.63" width="21" height="8"/>
	<polygon points="58.17,56.63 81.34,56.63 84.45,48.63 61.56,48.63 	"/>
	<polygon points="123.91,26.63 120.6,18.63 98.79,18.63 101.83,26.63 	"/>
	<polygon points="92.8,26.63 95.81,18.63 73.99,18.63 70.68,26.63 	"/>
	<polygon points="113.25,56.63 136.41,56.63 133.03,48.63 110.13,48.63 	"/>
	<polygon points="92.05,28.63 69.85,28.63 66.53,36.63 89.04,36.63 	"/>
	<polygon points="97.29,14.69 98.03,16.63 119.77,16.63 112.93,-0.37 81.66,-0.37 74.82,16.63 96.56,16.63 	"/>
	<polygon points="65.7,38.63 62.39,46.63 85.21,46.63 85.23,46.63 109.36,46.63 109.37,46.63 132.2,46.63 128.88,38.63 	"/>
	<polygon points="102.59,28.63 105.63,36.63 128.05,36.63 124.74,28.63 	"/>
	<polygon points="446.17,56.63 469.34,56.63 472.45,48.63 449.56,48.63 	"/>
	<polygon points="511.91,26.63 508.6,18.63 486.79,18.63 489.83,26.63 	"/>
	<polygon points="480.8,26.63 483.81,18.63 461.99,18.63 458.68,26.63 	"/>
	<polygon points="501.25,56.63 524.41,56.63 521.03,48.63 498.13,48.63 	"/>
	<polygon points="480.05,28.63 457.85,28.63 454.53,36.63 477.04,36.63 	"/>
	<polygon points="485.29,14.69 486.03,16.63 507.77,16.63 500.92,-0.37 469.66,-0.37 462.82,16.63 484.56,16.63 	"/>
	<polygon points="453.7,38.63 450.39,46.63 473.21,46.63 473.23,46.63 497.36,46.63 497.37,46.63 520.2,46.63 516.88,38.63 	"/>
	<polygon points="490.59,28.63 493.63,36.63 516.05,36.63 512.74,28.63 	"/>
	<path d="M183,22.66c0,2.06-1.55,3.74-3.54,3.98h24.38c0.3-1.54,0.46-3.14,0.46-4.81c0-1.09-0.09-2.15-0.22-3.19h-25.1
		C181.2,18.63,183,20.43,183,22.66z"/>
	<polygon points="179.35,56.63 204.29,56.63 199.25,48.63 174.51,48.63 	"/>
	<rect x="138.21" y="48.63" width="21" height="8"/>
	<path d="M196.93,38.63h-58.72v8h20.89h14.23h24.69l-3.76-6.1C195.2,39.97,196.09,39.33,196.93,38.63z"/>
	<rect x="138.21" y="18.63" width="21" height="8"/>
	<path d="M182.59-0.37h-44.38v17h65.53C201.66,6.78,193.62-0.37,182.59-0.37z"/>
	<path d="M138.21,28.63v8h60.78c1.99-2.24,3.47-4.94,4.36-8H138.21z"/>
	<path d="M423,22.66c0,2.06-1.55,3.74-3.55,3.98h24.38c0.3-1.54,0.46-3.14,0.46-4.81c0-1.09-0.09-2.15-0.22-3.19h-25.1
		C421.2,18.63,423,20.43,423,22.66z"/>
	<polygon points="419.35,56.63 444.29,56.63 439.25,48.63 414.51,48.63 	"/>
	<rect x="378.21" y="48.63" width="21" height="8"/>
	<path d="M436.93,38.63h-58.72v8h20.89h14.23h24.69l-3.76-6.1C435.2,39.97,436.09,39.33,436.93,38.63z"/>
	<rect x="378.21" y="18.63" width="21" height="8"/>
	<path d="M422.59-0.37h-44.38v17h65.53C441.66,6.78,433.62-0.37,422.59-0.37z"/>
	<path d="M378.21,28.63v8h60.78c1.99-2.24,3.47-4.94,4.36-8H378.21z"/>
	<rect x="207.21" y="48.63" width="21" height="8"/>
	<rect x="207.21" y="38.63" width="21" height="8"/>
	<rect x="207.21" y="28.63" width="21" height="8"/>
	<rect x="207.21" y="-0.37" width="21" height="17"/>
	<rect x="207.21" y="18.63" width="21" height="8"/>
	<polygon points="252.21,26.63 252.21,23.36 254.48,26.63 277.95,26.63 272.1,18.63 231.21,18.63 231.21,26.63 	"/>
	<polygon points="283.21,28.63 283.21,33.56 279.42,28.63 255.94,28.63 261.79,36.63 304.21,36.63 304.21,28.63 	"/>
	<rect x="231.21" y="28.63" width="21" height="8"/>
	<rect x="231.21" y="38.63" width="21" height="8"/>
	<polygon points="276.54,56.63 304.21,56.63 304.21,48.63 270.56,48.63 	"/>
	<polygon points="263.25,38.63 269.1,46.63 304.21,46.63 304.21,38.63 	"/>
	<polygon points="258.56,-0.37 231.21,-0.37 231.21,16.63 270.64,16.63 	"/>
	<rect x="283.21" y="-0.37" width="21" height="17"/>
	<rect x="283.21" y="18.63" width="21" height="8"/>
	<rect x="231.21" y="48.63" width="21" height="8"/>
	<path d="M349.44-0.37h-42.23v17h66.84C369.95,5.45,359.94-0.37,349.44-0.37z"/>
	<path d="M307.21,56.63h42.23c7.42,0,14.59-2.49,19.61-8h-61.85V56.63z"/>
	<path d="M354.95,28.63c-0.03,4.15-1.24,6.58-2.96,8h23.15c0.55-2.44,0.86-5.1,0.87-8H354.95z"/>
	<rect x="307.21" y="28.63" width="21" height="8"/>
	<path d="M354.87,26.63h21.1c-0.13-2.91-0.56-5.58-1.25-8h-25.49C351.99,19.55,354.4,21.69,354.87,26.63z"/>
	<path d="M344.32,38.63c-0.47,0-0.93,0-1.36,0h-14.58h-21.18v8h63.48c1.66-2.27,3-4.94,3.92-8H344.32z"/>
	<rect x="307.21" y="18.63" width="21" height="8"/>
</g>
</svg>
